<svg version="1.1" id="Layer_1" xmlns="http://www.w3.org/2000/svg" xmlns:xlink="http://www.w3.org/1999/xlink" x="0px" y="0px" width="100%" viewBox="0 0 617 125" enable-background="new 0 0 617 125" xml:space="preserve">

<path fill="#2563EB" opacity="1.000000" stroke="none" d="
M1.000000,17.449980 
	C26.800285,17.000000 52.601223,16.887367 78.400642,17.036724 
	C97.964432,17.149979 116.529396,30.935831 121.740768,50.496193 
	C118.048668,50.996185 114.302551,51.240612 110.683151,52.051006 
	C104.120934,53.520302 102.259285,47.936653 99.287300,44.469883 
	C94.321159,38.676971 88.196457,35.217480 80.778465,35.100815 
	C61.641048,34.799828 42.489365,34.709148 23.356451,35.129498 
	C14.523224,35.323563 7.093995,33.527393 1.325352,26.090149 
	C1.000000,23.299986 1.000000,20.599974 1.000000,17.449980 
z" data-index="1"></path>
<path fill="#2563EB" opacity="1.000000" stroke="none" d="
M51.794247,52.441074 
	C42.611229,70.265457 51.549759,91.747597 69.889091,98.456329 
	C81.657837,102.761467 98.767662,95.670914 102.874634,84.104370 
	C97.013382,84.104370 91.289764,84.104370 85.290253,84.104370 
	C85.290253,77.932907 85.290253,72.214668 85.290253,66.246765 
	C98.029228,66.246765 110.623856,66.246765 123.825897,66.246765 
	C125.167366,83.200966 118.658424,96.966347 105.816147,107.500298 
	C92.070824,118.774963 76.056328,120.472771 60.155052,113.366455 
	C40.877396,104.751221 32.995193,88.040428 31.635653,68.581154 
	C26.998152,66.178223 21.857544,64.715446 18.544037,61.417141 
	C15.900817,58.786049 15.484651,53.917641 13.705015,49.008121 
	C26.790432,49.008121 38.390820,48.957912 49.987637,49.137794 
	C50.655342,49.148148 51.293983,51.032085 51.794247,52.441074 
z" data-index="2"></path>
<path fill="#414141" opacity="1.000000" stroke="none" d="
M156.996429,33.000000 
	C165.506638,33.041985 173.498596,32.704304 181.058060,36.453907 
	C190.418365,41.096760 192.320892,56.480843 187.126450,64.424515 
	C185.409119,67.050743 184.303238,70.076805 182.917801,72.920059 
	C181.870865,72.160492 180.823929,71.400925 179.776993,70.641357 
	C183.788361,78.289368 187.799744,85.937378 191.825027,93.611923 
	C191.290970,93.833885 191.165375,93.910553 191.029694,93.938980 
	C181.027359,96.034645 174.006516,92.869850 170.913269,82.627167 
	C170.591476,81.561623 169.768311,80.656769 169.256332,79.637878 
	C165.635330,72.431740 165.641861,72.428452 157.151459,73.441391 
	C157.151459,80.018311 157.151459,86.639420 157.151459,93.628868 
	C152.819885,93.628868 148.754517,93.628868 144.341553,93.628868 
	C144.341553,73.765610 144.341553,53.702278 144.341553,33.000000 
	C148.307709,33.000000 152.403946,33.000000 156.996429,33.000000 
M175.999634,52.677567 
	C174.482239,45.038750 170.619675,43.547905 157.255493,45.506729 
	C157.255493,50.879543 157.255493,56.267258 157.255493,61.997894 
	C160.961502,61.997894 164.428970,62.183384 167.868912,61.954609 
	C173.086212,61.607632 175.510147,58.944965 175.999634,52.677567 
z" data-index="3"></path>
<path fill="#414141" opacity="1.000000" stroke="none" d="
M387.260712,81.000015 
	C384.235504,80.452446 383.223022,81.607666 382.391968,84.045891 
	C378.924744,94.218132 378.818481,94.186981 368.079468,93.991074 
	C367.112549,93.973442 366.147797,93.835526 364.571381,93.701591 
	C371.609833,73.328918 378.540161,53.269272 385.501923,33.118526 
	C391.182983,33.118526 396.814758,33.118526 402.440521,33.118526 
	C409.361389,53.298492 416.245270,73.370674 423.318604,93.995277 
	C418.839691,93.995277 414.874176,94.171562 410.943970,93.876785 
	C409.904327,93.798805 408.527405,92.455284 408.076355,91.371872 
	C406.717957,88.109161 405.739349,84.688324 404.502197,81.000000 
	C399.008942,81.000000 393.368408,81.000000 387.260712,81.000015 
M397.004456,57.591686 
	C396.201202,55.645832 395.397949,53.699974 394.594727,51.754120 
	C394.080322,51.763470 393.565948,51.772823 393.051544,51.782173 
	C391.374359,56.704796 389.507690,61.578743 388.217346,66.600754 
	C388.016052,67.384216 390.261963,69.314003 391.700226,69.859489 
	C393.218536,70.435341 395.124695,69.988625 397.075562,69.988625 
	C397.075562,65.673698 397.075562,62.041740 397.004456,57.591686 
z" data-index="4" style="opacity: 1;"></path>
<path fill="#414141" opacity="1.000000" stroke="none" d="
M522.002441,51.088219 
	C522.297852,52.419155 522.587280,53.331722 522.998901,54.629738 
	C518.486694,54.629738 514.117798,54.629738 509.603210,54.629738 
	C504.013672,45.172451 499.408325,42.627407 491.218262,46.140594 
	C487.975372,47.531662 484.259857,50.842831 483.366394,54.014172 
	C481.846924,59.407646 481.445831,65.522758 482.271851,71.082504 
	C483.805847,81.407631 495.348175,86.275764 504.109924,80.971581 
	C504.806122,80.550102 505.486481,80.038177 506.029236,79.437317 
	C512.308167,72.485756 512.300720,72.479050 522.543213,73.250252 
	C521.282837,87.012596 510.271149,94.219276 499.794342,94.976868 
	C480.864746,96.345688 472.117798,86.839355 469.166626,74.658592 
	C466.537506,63.807098 466.914978,52.982464 473.921722,43.308357 
	C478.632874,36.803696 484.867828,33.387527 492.837097,32.998463 
	C500.827240,32.608387 508.859497,32.856651 514.739868,39.091740 
	C517.804932,42.341640 519.617859,46.772434 522.002441,51.088219 
z" data-index="5"></path>
<path fill="#414141" opacity="1.000000" stroke="none" d="
M568.081787,56.287712 
	C568.784485,63.149185 569.602051,69.612518 569.937256,76.100777 
	C570.235718,81.876312 570.000000,87.679443 570.000000,94.265694 
	C565.238098,92.714523 559.995728,96.688309 555.822083,91.032127 
	C551.353760,95.662109 545.078552,95.944229 539.213928,94.767052 
	C532.879822,93.495636 528.286987,91.049347 528.912537,78.744377 
	C529.226624,72.566772 533.598816,69.438110 540.067078,68.049522 
	C544.336548,67.132965 548.731995,66.806366 553.005859,65.906090 
	C554.125671,65.670212 555.729309,64.349075 555.818298,63.404556 
	C555.948120,62.026600 555.308044,59.756153 554.295471,59.239578 
	C550.836853,57.475094 546.769897,56.432583 544.233276,60.471817 
	C542.266113,63.604336 539.698181,63.151363 537.045837,62.904400 
	C534.800598,62.695347 532.599182,62.014500 530.192383,61.502899 
	C531.258423,55.097267 535.266968,50.656284 541.362061,49.167385 
	C551.182373,46.768463 560.945190,46.456852 568.081787,56.287712 
M543.109863,84.607849 
	C551.454102,88.232643 555.537903,84.691223 554.748230,74.686256 
	C553.012451,74.795311 551.265015,74.784294 549.555603,75.033592 
	C542.489746,76.064041 540.224365,79.025780 543.109863,84.607849 
z" data-index="6"></path>
<path fill="#414141" opacity="1.000000" stroke="none" d="
M210.432007,75.001907 
	C209.332047,75.676537 208.067551,76.417381 208.132828,77.012276 
	C208.864410,83.677284 217.904465,88.098320 222.615509,83.487709 
	C227.719925,78.492104 232.525131,79.927773 237.914963,81.382996 
	C235.788742,92.031044 224.697571,97.948456 211.174530,94.857986 
	C198.760803,92.021034 193.084641,81.469002 195.176758,66.417397 
	C196.996246,53.327190 207.373810,45.958855 221.279099,48.192566 
	C232.412415,49.980995 239.922562,58.131729 238.673523,75.000328 
	C229.443527,75.000328 220.164307,75.000328 210.432007,75.001907 
M216.521576,67.000000 
	C219.614761,67.000000 222.707932,67.000000 225.858139,67.000000 
	C224.938156,61.086967 221.711746,57.981396 216.958481,58.000446 
	C212.225677,58.019413 208.943130,61.247578 208.187988,67.000000 
	C210.676880,67.000000 213.123352,67.000000 216.521576,67.000000 
z" data-index="7"></path>
<path fill="#414141" opacity="1.000000" stroke="none" d="
M289.000000,72.022331 
	C289.000000,79.487915 289.000000,86.457802 289.000000,93.712090 
	C284.653778,93.712090 280.591095,93.712090 275.999908,93.712090 
	C275.999908,85.230011 276.057678,76.789688 275.980286,68.350601 
	C275.925690,62.401512 272.696167,58.856895 267.698975,59.000488 
	C263.051392,59.134045 260.088776,62.291756 260.013489,67.332054 
	C259.948822,71.662231 260.000000,75.994141 260.000000,80.325279 
	C259.999969,84.646912 260.000000,88.968552 260.000000,93.644684 
	C255.788422,93.644684 251.724564,93.644684 247.327332,93.644684 
	C247.327332,78.739754 247.327332,63.678879 247.327332,48.307922 
	C250.983047,48.307922 254.724838,48.307922 258.706848,48.307922 
	C258.899902,49.442635 259.107269,50.661369 259.388031,52.311550 
	C261.003693,51.706192 262.457764,51.409286 263.642090,50.676445 
	C270.121155,46.667194 276.431427,46.836021 282.817444,50.942593 
	C287.284485,53.815155 288.327728,58.360886 288.933685,63.039562 
	C289.294403,65.824738 288.999939,68.694763 289.000000,72.022331 
z" data-index="8"></path>
<path fill="#414141" opacity="1.000000" stroke="none" d="
M314.000000,70.991776 
	C314.000000,73.648285 314.122986,75.821625 313.972656,77.975883 
	C313.712952,81.697464 313.910645,84.252617 319.044556,84.181267 
	C324.077179,84.111320 321.093689,89.517860 322.824524,91.972519 
	C322.920868,92.109131 320.625641,94.806625 319.420563,94.825302 
	C315.528381,94.885620 311.449829,94.835953 307.772247,93.732086 
	C303.434662,92.430107 300.848633,89.157433 300.954254,84.108688 
	C301.124573,75.968239 301.000000,67.821625 301.000000,59.290539 
	C298.759247,59.124962 296.688171,58.971924 294.308777,58.796101 
	C294.308777,55.404842 294.308777,52.000599 294.308777,48.225304 
	C296.321442,48.098488 298.396057,47.967773 300.905792,47.809639 
	C300.905792,44.646706 300.905792,41.571121 300.905792,38.251259 
	C305.412170,38.251259 309.477692,38.251259 313.824554,38.251259 
	C313.824554,41.336926 313.824554,44.286762 313.824554,47.678413 
	C316.482574,47.678413 318.884705,47.678413 321.648712,47.678413 
	C321.648712,51.512558 321.648712,54.916286 321.648712,58.801556 
	C319.428070,58.908520 317.019409,59.024544 314.000000,59.169987 
	C314.000000,62.963398 314.000000,66.731705 314.000000,70.991776 
z" data-index="9"></path>
<path fill="#414141" opacity="1.000000" stroke="none" d="
M592.886353,64.345276 
	C592.511414,70.488594 592.194336,76.227798 592.021667,81.971352 
	C591.907349,85.774055 592.000000,89.582985 592.000000,93.693398 
	C587.693848,93.693398 583.633545,93.693398 579.283325,93.693398 
	C579.283325,78.657394 579.283325,63.606598 579.283325,47.835819 
	C583.902466,49.350349 589.390930,44.975025 592.721375,50.364391 
	C597.370300,49.307877 601.818298,48.297009 606.752197,47.175724 
	C606.752197,52.080837 606.752197,55.832802 606.752197,59.994682 
	C601.655640,59.622261 596.282776,58.496803 592.886353,64.349075 
z" data-index="10"></path>
<path fill="#414141" opacity="1.000000" stroke="none" d="
M356.944702,65.229813 
	C356.988739,68.651688 356.988739,71.599411 356.988739,74.770401 
	C347.557983,74.770401 338.514740,74.770401 329.235260,74.770401 
	C329.235260,71.221275 329.235260,67.833664 329.235260,64.755661 
	C338.582123,64.755661 347.741394,64.755661 356.944702,65.229813 
z" data-index="11"></path>
<path fill="#414141" opacity="1.000000" stroke="none" d="
M450.924164,59.000000 
	C453.390045,59.000000 455.365417,59.000000 457.669739,59.000000 
	C457.669739,62.253681 457.669739,65.311516 457.669739,68.688232 
	C448.742676,68.688232 439.700531,68.688232 430.327301,68.688232 
	C430.327301,65.741653 430.327301,62.683563 430.327301,59.000000 
	C436.950500,59.000000 443.692078,59.000000 450.924164,59.000000 
z" data-index="12" style="opacity: 1;"></path>
<path fill="#FFFFFF" opacity="1.000000" stroke="none" d="
M175.999786,53.092670 
	C175.510147,58.944965 173.086212,61.607632 167.868912,61.954609 
	C164.428970,62.183384 160.961502,61.997894 157.255493,61.997894 
	C157.255493,56.267258 157.255493,50.879543 157.255493,45.506729 
	C170.619675,43.547905 174.482239,45.038750 175.999786,53.092670 
z" data-index="13"></path>
<path fill="#FFFFFF" opacity="1.000000" stroke="none" d="
M397.040009,58.000732 
	C397.075562,62.041740 397.075562,65.673698 397.075562,69.988625 
	C395.124695,69.988625 393.218536,70.435341 391.700226,69.859489 
	C390.261963,69.314003 388.016052,67.384216 388.217346,66.600754 
	C389.507690,61.578743 391.374359,56.704796 393.051544,51.782173 
	C393.565948,51.772823 394.080322,51.763470 394.594727,51.754120 
	C395.397949,53.699974 396.201202,55.645832 397.040009,58.000732 
z" data-index="14" style="opacity: 1;"></path>
<path fill="#FFFFFF" opacity="1.000000" stroke="none" d="
M542.840332,84.321198 
	C540.224365,79.025780 542.489746,76.064041 549.555603,75.033592 
	C551.265015,74.784294 553.012451,74.795311 554.748230,74.686256 
	C555.537903,84.691223 551.454102,88.232643 542.840332,84.321198 
z" data-index="15"></path>
<path fill="#FFFFFF" opacity="1.000000" stroke="none" d="
M216.045685,67.000000 
	C213.123352,67.000000 210.676880,67.000000 208.187988,67.000000 
	C208.943130,61.247578 212.225677,58.019413 216.958481,58.000446 
	C221.711746,57.981396 224.938156,61.086967 225.858139,67.000000 
	C222.707932,67.000000 219.614761,67.000000 216.045685,67.000000 
z" data-index="16"></path>
</svg>
